Coordinates
version=1
nRows=14
nColumns=24
inDegrees=yes

Units are S.I. units (second, meters, Newtons, ...)
Angles are in degrees.

endheader
time	pelvis_tilt	pelvis_list	pelvis_rotation	pelvis_tx	pelvis_ty	pelvis_tz	hip_flexion_r	hip_adduction_r	hip_rotation_r	knee_angle_r	ankle_angle_r	subtalar_angle_r	mtp_angle_r	hip_flexion_l	hip_adduction_l	hip_rotation_l	knee_angle_l	ankle_angle_l	subtalar_angle_l	mtp_angle_l	lumbar_extension	lumbar_bending	lumbar_rotation
      0.57066667	      2.56997121	      1.26786796	      4.76804932	     -0.50595822	      1.08241292	      0.30198740	      7.42058882	      1.27116349	     -4.12383608	    -17.83394751	      9.21181122	     -4.36852452	      6.04864207	     14.44924009	     -3.43138093	     -4.04411306	    -69.83032667	      4.04826274	      1.25552705	      3.97261016	    -14.39451875	      2.85686276	     -1.09846555
      0.57483333	      2.60660511	      1.44217104	      4.70328261	     -0.50097923	      1.08359403	      0.30227048	      6.87096700	      1.13308054	     -4.07106076	    -17.40905497	      9.27204784	     -4.29088892	      6.03886404	     14.86619069	     -3.23702841	     -4.20064703	    -69.39929668	      4.31790894	      1.50598553	      3.94369851	    -14.48504416	      2.62412755	     -0.91935709
      0.57900000	      2.62193087	      1.60874112	      4.63015952	     -0.49601047	      1.08467545	      0.30254847	      6.35325450	      0.99947368	     -4.01650098	    -16.99685241	      9.30933329	     -4.22250878	      6.02940269	     15.29612457	     -3.05036858	     -4.36654764	    -68.92549154	      4.59456386	      1.78931047	      3.92318505	    -14.55547447	      2.40244225	     -0.77553731
      0.58316667	      2.64902015	      1.78947923	      4.53708175	     -0.49105072	      1.08574915	      0.30284673	      5.82721383	      0.85093627	     -3.94696214	    -16.59020432	      9.35404591	     -4.14732427	      6.02222738	     15.68979211	     -2.85106880	     -4.55316982	    -68.38410742	      4.86139646	      2.10102786	      3.91219603	    -14.64287669	      2.16123513	     -0.64016502
      0.58733333	      2.66441558	      1.95566613	      4.43782634	     -0.48609822	      1.08675042	      0.30311834	      5.31999665	      0.71325710	     -3.87532783	    -16.18963247	      9.37786350	     -4.07811605	      6.01735726	     16.08527036	     -2.66660365	     -4.74478955	    -67.79790459	      5.12624495	      2.42961252	      3.91120087	    -14.71153529	      1.94891590	     -0.52388962
      0.59150000	      2.67330667	      2.11805845	      4.32500188	     -0.48113267	      1.08769281	      0.30342900	      4.82151196	      0.58023506	     -3.79818013	    -15.78701342	      9.40255371	     -4.00504937	      6.01410427	     16.47157607	     -2.49762183	     -4.96249532	    -67.16278851	      5.38668989	      2.76792958	      3.91506578	    -14.76744893	      1.70254032	     -0.41116265
      0.59566667	      2.72579232	      2.28181861	      4.19507902	     -0.47620918	      1.08865332	      0.30372827	      4.28292962	      0.44712325	     -3.69455498	    -15.39357644	      9.45719740	     -3.94247968	      6.01071285	     16.79137580	     -2.32901361	     -5.19083631	    -66.46858619	      5.64866623	      3.15193634	      3.92097364	    -14.88486676	      1.50250412	     -0.22051936
      0.59983333	      2.75196900	      2.41058597	      4.06719271	     -0.47126064	      1.08950143	      0.30402651	      3.76691003	      0.35141208	     -3.58092558	    -14.98004280	      9.50447157	     -3.89445879	      6.00481925	     17.13540596	     -2.20399282	     -5.42282258	    -65.74795857	      5.90567735	      3.51589880	      3.92921702	    -14.96399143	      1.30080848	      0.01591120
      0.60400000	      2.79166821	      2.55233542	      3.92570104	     -0.46633732	      1.09033042	      0.30432751	      3.24830410	      0.23732962	     -3.47182441	    -14.58722727	      9.54089577	     -3.83989503	      5.99948294	     17.44368887	     -2.06461938	     -5.66743085	    -64.96528874	      6.14900029	      3.87091700	      3.93997756	    -15.05818781	      1.09864198	      0.19153570
      0.60816667	      2.81479893	      2.68610256	      3.77714980	     -0.46141425	      1.09107318	      0.30463035	      2.75460427	      0.12860035	     -3.35525151	    -14.20516381	      9.58071173	     -3.78553259	      5.99379222	     17.75643611	     -1.93537815	     -5.92028302	    -64.13929808	      6.38275720	      4.21481528	      3.95304638	    -15.13424218	      0.90446239	      0.37728124
      0.61233333	      2.80663067	      2.82457230	      3.61926152	     -0.45648227	      1.09171080	      0.30492039	      2.30977941	      0.00658376	     -3.24633946	    -13.85315840	      9.61141033	     -3.72001445	      5.99047967	     18.08446928	     -1.79595015	     -6.17902411	    -63.26008696	      6.59831596	      4.52978479	      3.96410953	    -15.16463899	      0.71335507	      0.49638151
      0.61650000	      2.85388068	      2.93460559	      3.46478394	     -0.45157393	      1.09238039	      0.30520767	      1.79045653	     -0.07762678	     -3.11142299	    -13.46276313	      9.66517971	     -3.68123052	      5.98337094	     18.34396764	     -1.69550752	     -6.43455404	    -62.34689205	      6.81671337	      4.84839042	      3.98070778	    -15.27289468	      0.53720138	      0.75592381
      0.62066667	      2.83466144	      3.05057589	      3.30212329	     -0.44664285	      1.09287884	      0.30548639	      1.36794825	     -0.18030036	     -3.00141790	    -13.12589377	      9.71005820	     -3.62045688	      5.97953664	     18.65740337	     -1.58177151	     -6.69789661	    -61.38426802	      7.00441432	      5.12261390	      3.99180413	    -15.28177769	      0.36830817	      0.87240925
      0.62483333	      2.85872982	      3.14867087	      3.14080608	     -0.44173305	      1.09338183	      0.30576605	      0.88758031	     -0.25899361	     -2.86695540	    -12.75928767	      9.78423057	     -3.57826102	      5.97172294	     18.91310477	     -1.49403853	     -6.96035109	    -60.38505098	      7.18729114	      5.39377395	      4.00748187	    -15.35307711	      0.20418441	      1.11671266
